<svg viewBox="0 0 330 200" xmlns="http://www.w3.org/2000/svg"><g><g><g><g><g><line x1="72.29800224304199" y1="177.89999961853027" x2="67.29800224304199" y2="177.89999961853027" style="visibility: inherit;" fill="rgb(0, 0, 0)" stroke="rgb(204, 204, 204)" stroke-width="1px"></line><line x1="72.29800224304199" y1="165.19285678863525" x2="67.29800224304199" y2="165.19285678863525" style="visibility: inherit;" fill="rgb(0, 0, 0)" stroke="rgb(204, 204, 204)" stroke-width="1px"></line><line x1="72.29800224304199" y1="152.48571395874023" x2="67.29800224304199" y2="152.48571395874023" style="visibility: inherit;" fill="rgb(0, 0, 0)" stroke="rgb(204, 204, 204)" stroke-width="1px"></line><line x1="72.29800224304199" y1="139.77857112884521" x2="67.29800224304199" y2="139.77857112884521" style="visibility: inherit;" fill="rgb(0, 0, 0)" stroke="rgb(204, 204, 204)" stroke-width="1px"></line><line x1="72.29800224304199" y1="127.07142829895018" x2="67.29800224304199" y2="127.07142829895018" style="visibility: inherit;" fill="rgb(0, 0, 0)" stroke="rgb(204, 204, 204)" stroke-width="1px"></line><line x1="72.29800224304199" y1="114.36428546905516" x2="67.29800224304199" y2="114.36428546905516" style="visibility: inherit;" fill="rgb(0, 0, 0)" stroke="rgb(204, 204, 204)" stroke-width="1px"></line><line x1="72.29800224304199" y1="101.65714263916016" x2="67.29800224304199" y2="101.65714263916016" style="visibility: inherit;" fill="rgb(0, 0, 0)" stroke="rgb(204, 204, 204)" stroke-width="1px"></line><line x1="72.29800224304199" y1="88.94999980926514" x2="67.29800224304199" y2="88.94999980926514" style="visibility: inherit;" fill="rgb(0, 0, 0)" stroke="rgb(204, 204, 204)" stroke-width="1px"></line><line x1="72.29800224304199" y1="76.24285697937012" x2="67.29800224304199" y2="76.24285697937012" style="visibility: inherit;" fill="rgb(0, 0, 0)" stroke="rgb(204, 204, 204)" stroke-width="1px"></line><line x1="72.29800224304199" y1="63.53571414947511" x2="67.29800224304199" y2="63.53571414947511" style="visibility: inherit;" fill="rgb(0, 0, 0)" stroke="rgb(204, 204, 204)" stroke-width="1px"></line><line x1="72.29800224304199" y1="50.82857131958008" x2="67.29800224304199" y2="50.82857131958008" style="visibility: inherit;" fill="rgb(0, 0, 0)" stroke="rgb(204, 204, 204)" stroke-width="1px"></line><line x1="72.29800224304199" y1="38.121428489685044" x2="67.29800224304199" y2="38.121428489685044" style="visibility: inherit;" fill="rgb(0, 0, 0)" stroke="rgb(204, 204, 204)" stroke-width="1px"></line><line x1="72.29800224304199" y1="25.41428565979003" x2="67.29800224304199" y2="25.41428565979003" style="visibility: inherit;" fill="rgb(0, 0, 0)" stroke="rgb(204, 204, 204)" stroke-width="1px"></line><line x1="72.29800224304199" y1="12.707142829894995" x2="67.29800224304199" y2="12.707142829894995" style="visibility: inherit;" fill="rgb(0, 0, 0)" stroke="rgb(204, 204, 204)" stroke-width="1px"></line></g><g transform="translate(62.29800224304199, 0)"><text style="text-anchor: end; visibility: hidden; font-family: Roboto, sans-serif; font-size: 12px; font-weight: 200;" x="0" y="177.89999961853027" dx="0em" dy="0.3em" fill="rgb(50, 49, 63)" stroke="none" stroke-width="1px">-1e-4</text><text style="text-anchor: end; visibility: inherit; font-family: Roboto, sans-serif; font-size: 12px; font-weight: 200;" x="0" y="165.19285678863525" dx="0em" dy="0.3em" fill="rgb(50, 49, 63)" stroke="none" stroke-width="1px">-5e-5</text><text style="text-anchor: end; visibility: hidden; font-family: Roboto, sans-serif; font-size: 12px; font-weight: 200;" x="0" y="152.48571395874023" dx="0em" dy="0.3em" fill="rgb(50, 49, 63)" stroke="none" stroke-width="1px">0</text><text style="text-anchor: end; visibility: inherit; font-family: Roboto, sans-serif; font-size: 12px; font-weight: 200;" x="0" y="139.77857112884521" dx="0em" dy="0.3em" fill="rgb(50, 49, 63)" stroke="none" stroke-width="1px">5e-5</text><text style="text-anchor: end; visibility: hidden; font-family: Roboto, sans-serif; font-size: 12px; font-weight: 200;" x="0" y="127.07142829895018" dx="0em" dy="0.3em" fill="rgb(50, 49, 63)" stroke="none" stroke-width="1px">1e-4</text><text style="text-anchor: end; visibility: inherit; font-family: Roboto, sans-serif; font-size: 12px; font-weight: 200;" x="0" y="114.36428546905516" dx="0em" dy="0.3em" fill="rgb(50, 49, 63)" stroke="none" stroke-width="1px">1.5e-4</text><text style="text-anchor: end; visibility: hidden; font-family: Roboto, sans-serif; font-size: 12px; font-weight: 200;" x="0" y="101.65714263916016" dx="0em" dy="0.3em" fill="rgb(50, 49, 63)" stroke="none" stroke-width="1px">2e-4</text><text style="text-anchor: end; visibility: inherit; font-family: Roboto, sans-serif; font-size: 12px; font-weight: 200;" x="0" y="88.94999980926514" dx="0em" dy="0.3em" fill="rgb(50, 49, 63)" stroke="none" stroke-width="1px">2.5e-4</text><text style="text-anchor: end; visibility: hidden; font-family: Roboto, sans-serif; font-size: 12px; font-weight: 200;" x="0" y="76.24285697937012" dx="0em" dy="0.3em" fill="rgb(50, 49, 63)" stroke="none" stroke-width="1px">3e-4</text><text style="text-anchor: end; visibility: inherit; font-family: Roboto, sans-serif; font-size: 12px; font-weight: 200;" x="0" y="63.53571414947511" dx="0em" dy="0.3em" fill="rgb(50, 49, 63)" stroke="none" stroke-width="1px">3.5e-4</text><text style="text-anchor: end; visibility: hidden; font-family: Roboto, sans-serif; font-size: 12px; font-weight: 200;" x="0" y="50.82857131958008" dx="0em" dy="0.3em" fill="rgb(50, 49, 63)" stroke="none" stroke-width="1px">4e-4</text><text style="text-anchor: end; visibility: inherit; font-family: Roboto, sans-serif; font-size: 12px; font-weight: 200;" x="0" y="38.121428489685044" dx="0em" dy="0.3em" fill="rgb(50, 49, 63)" stroke="none" stroke-width="1px">4.5e-4</text><text style="text-anchor: end; visibility: hidden; font-family: Roboto, sans-serif; font-size: 12px; font-weight: 200;" x="0" y="25.41428565979003" dx="0em" dy="0.3em" fill="rgb(50, 49, 63)" stroke="none" stroke-width="1px">5e-4</text><text style="text-anchor: end; visibility: inherit; font-family: Roboto, sans-serif; font-size: 12px; font-weight: 200;" x="0" y="12.707142829894995" dx="0em" dy="0.3em" fill="rgb(50, 49, 63)" stroke="none" stroke-width="1px">5.5e-4</text></g><line x1="72.29800224304199" y1="0" x2="72.29800224304199" y2="177.89999961853027" fill="rgb(0, 0, 0)" stroke="rgb(204, 204, 204)" stroke-width="1px"></line></g></g><g transform="translate(72, 0)" clip-path="url(#clip_0)"><clipPath id="clip_0"><rect width="257" height="177"></rect></clipPath><g><g><g><line x1="0" y1="0" x2="0" y2="177.89999961853027" fill="rgb(0, 0, 0)" stroke="rgb(60, 60, 60)" stroke-width="1px" opacity="0.25"></line><line x1="32.21274971961975" y1="0" x2="32.21274971961975" y2="177.89999961853027" fill="rgb(0, 0, 0)" stroke="rgb(60, 60, 60)" stroke-width="1px" opacity="0.25"></line><line x1="64.4254994392395" y1="0" x2="64.4254994392395" y2="177.89999961853027" fill="rgb(0, 0, 0)" stroke="rgb(60, 60, 60)" stroke-width="1px" opacity="0.25"></line><line x1="96.63824915885925" y1="0" x2="96.63824915885925" y2="177.89999961853027" fill="rgb(0, 0, 0)" stroke="rgb(60, 60, 60)" stroke-width="1px" opacity="0.25"></line><line x1="128.850998878479" y1="0" x2="128.850998878479" y2="177.89999961853027" fill="rgb(0, 0, 0)" stroke="rgb(60, 60, 60)" stroke-width="1px" opacity="0.25"></line><line x1="161.06374859809875" y1="0" x2="161.06374859809875" y2="177.89999961853027" fill="rgb(0, 0, 0)" stroke="rgb(60, 60, 60)" stroke-width="1px" opacity="0.25"></line><line x1="193.2764983177185" y1="0" x2="193.2764983177185" y2="177.89999961853027" fill="rgb(0, 0, 0)" stroke="rgb(60, 60, 60)" stroke-width="1px" opacity="0.25"></line><line x1="225.48924803733826" y1="0" x2="225.48924803733826" y2="177.89999961853027" fill="rgb(0, 0, 0)" stroke="rgb(60, 60, 60)" stroke-width="1px" opacity="0.25"></line><line x1="257.701997756958" y1="0" x2="257.701997756958" y2="177.89999961853027" fill="rgb(0, 0, 0)" stroke="rgb(60, 60, 60)" stroke-width="1px" opacity="0.25"></line></g><g><line x1="0" y1="177.89999961853027" x2="257.701997756958" y2="177.89999961853027" fill="rgb(0, 0, 0)" stroke="rgb(60, 60, 60)" stroke-width="1px" opacity="0.25"></line><line x1="0" y1="165.19285678863525" x2="257.701997756958" y2="165.19285678863525" fill="rgb(0, 0, 0)" stroke="rgb(60, 60, 60)" stroke-width="1px" opacity="0.25"></line><line x1="0" y1="152.48571395874023" x2="257.701997756958" y2="152.48571395874023" fill="rgb(0, 0, 0)" stroke="rgb(60, 60, 60)" stroke-width="1px" opacity="0.25"></line><line x1="0" y1="139.77857112884521" x2="257.701997756958" y2="139.77857112884521" fill="rgb(0, 0, 0)" stroke="rgb(60, 60, 60)" stroke-width="1px" opacity="0.25"></line><line x1="0" y1="127.07142829895018" x2="257.701997756958" y2="127.07142829895018" fill="rgb(0, 0, 0)" stroke="rgb(60, 60, 60)" stroke-width="1px" opacity="0.25"></line><line x1="0" y1="114.36428546905516" x2="257.701997756958" y2="114.36428546905516" fill="rgb(0, 0, 0)" stroke="rgb(60, 60, 60)" stroke-width="1px" opacity="0.25"></line><line x1="0" y1="101.65714263916016" x2="257.701997756958" y2="101.65714263916016" fill="rgb(0, 0, 0)" stroke="rgb(60, 60, 60)" stroke-width="1px" opacity="0.25"></line><line x1="0" y1="88.94999980926514" x2="257.701997756958" y2="88.94999980926514" fill="rgb(0, 0, 0)" stroke="rgb(60, 60, 60)" stroke-width="1px" opacity="0.25"></line><line x1="0" y1="76.24285697937012" x2="257.701997756958" y2="76.24285697937012" fill="rgb(0, 0, 0)" stroke="rgb(60, 60, 60)" stroke-width="1px" opacity="0.25"></line><line x1="0" y1="63.53571414947511" x2="257.701997756958" y2="63.53571414947511" fill="rgb(0, 0, 0)" stroke="rgb(60, 60, 60)" stroke-width="1px" opacity="0.25"></line><line x1="0" y1="50.82857131958008" x2="257.701997756958" y2="50.82857131958008" fill="rgb(0, 0, 0)" stroke="rgb(60, 60, 60)" stroke-width="1px" opacity="0.25"></line><line x1="0" y1="38.121428489685044" x2="257.701997756958" y2="38.121428489685044" fill="rgb(0, 0, 0)" stroke="rgb(60, 60, 60)" stroke-width="1px" opacity="0.25"></line><line x1="0" y1="25.41428565979003" x2="257.701997756958" y2="25.41428565979003" fill="rgb(0, 0, 0)" stroke="rgb(60, 60, 60)" stroke-width="1px" opacity="0.25"></line><line x1="0" y1="12.707142829894995" x2="257.701997756958" y2="12.707142829894995" fill="rgb(0, 0, 0)" stroke="rgb(60, 60, 60)" stroke-width="1px" opacity="0.25"></line></g></g></g><g><g><line x1="0" y1="152.48571395874023" x2="257.701997756958" y2="152.48571395874023" fill="rgb(0, 0, 0)" stroke="rgb(153, 153, 153)" stroke-width="1.5px"></line></g></g><g><g><line x1="32.21274971961975" y1="0" x2="32.21274971961975" y2="177.89999961853027" fill="rgb(0, 0, 0)" stroke="rgb(153, 153, 153)" stroke-width="1.5px"></line></g></g><g><g><g><g><g><path style="fill: none;" stroke="rgb(255, 112, 67)" stroke-width="2px" d="M32.53487721681595,25.414279624221045L32.59930271625519,25.414279624221045L32.92143021345139,25.414279624221045L33.1147067117691,25.414279624221084L33.17913221120835,25.414279624221045L33.37240870952606,25.414279624221045L33.50125970840454,25.414279624221045L33.7589617061615,25.414279624221045L34.532067699432375,25.414279624221045L34.789769697189335,25.414279624221045L34.91862069606781,25.414279624221045L35.04747169494629,25.414279624221024L35.111897194385534,25.414279624221024L35.24074819326401,25.414279624221045L35.62730118989945,25.414279624221045L35.69172668933869,25.414279624221024L35.756152188777925,25.414279624221024L35.82057768821716,25.414279624221045L35.88500318765641,25.414279624221084L36.400407183170316,25.414279624221045L36.59368368148803,25.414279624221045L36.78696017980575,25.414279624221045L36.85138567924499,25.414279624221045L36.91581117868423,25.414279624221045L36.98023667812347,25.414279624221045L37.30236417531967,25.414279624221045L37.81776817083359,25.414279624221084L37.88219367027283,25.414279624221045L38.268746666908264,25.414279624221045L38.78415066242218,25.414279624221084L38.9774271607399,25.414279624221045L39.04185266017914,25.414279624221084L39.492831156253814,25.414279624221045L39.68610765457153,25.414279624221084L39.81495865345001,25.414279624221084L40.33036264896393,25.414279624221084L40.52363914728165,25.414279624221084L40.58806464672089,25.414279624221084L41.16789414167404,25.414279624221102L41.296745140552524,25.414279624221084L41.36117063999176,25.414279624221084L41.425596139431,25.414279624221084L41.876574635505676,25.414279624221084L42.198702132701875,25.414279624221084L42.32755313158035,25.414279624221084L42.3919786310196,25.414279624221084L42.64968062877655,25.414279624221084L42.97180812597275,25.414279624221084L43.03623362541199,25.414279624221045L43.22951012372971,25.414279624221045L43.61606312036515,25.414279624221084L43.680488619804386,25.414279624221084L43.80933961868286,25.414279624221045L44.002616117000585,25.414279624221084L44.13146711587906,25.414279624221102L44.1958926153183,25.414279624221084L44.32474361419678,25.414279624221084L44.45359461307525,25.414279624221045L44.51802011251449,25.414279624221045L44.96899860858917,25.414279624221084L45.48440260410309,25.41447489262917L45.54882810354233,25.414663060367875L45.613253602981565,25.41485880215393L45.870955600738526,25.415408204613207L46.51521059513092,25.41758993735359L46.579636094570155,25.41914158320179L46.70848709344864,25.42059920369021L46.96618909120559,25.422651303656387L47.159465589523315,25.42487665735013L47.22389108896255,25.42656098581114L47.28831658840179,25.427938450806025L47.48159308671951,25.429930623027143L48.25469907999039,25.436741372399062L48.641252076625825,25.44421839165396L48.83452857494354,25.45055669447171L48.963379573822024,25.45564371387629L49.02780507326126,25.459346820212723L49.15665607213974,25.46292372842236L49.4143580698967,25.467898306653503L49.67206006765366,25.47388900363217L49.80091106653214,25.479045569084242L50.123038563728336,25.486251979374785L51.02499555587769,25.503516795504733L51.34712305307389,25.519023670487407L51.411548552513125,25.52938697866041L51.669250550270085,25.539954123563L51.733676049709324,25.547412765932826L51.991378047466284,25.5564560486596L52.05580354690552,25.56304771151982L52.184654545784,25.569375516255732L52.377931044101715,25.576811292157505L52.700058541297906,25.587556850104978L52.76448404073715,25.59528822258741L52.82890954017639,25.601228835464298L53.15103703737259,25.61145599796409L53.21546253681183,25.61895325709623L53.279888036251066,25.624830325881273L53.47316453456878,25.632545962089914L54.05299402952194,25.6503352510768L54.18184502840042,25.664056195080338L54.568398025035854,25.681679396745185L54.95495102167129,25.702034489823028L55.01937652111053,25.715916202975418L55.40592951774597,25.73448202923138L55.59920601606369,25.75088785477943L55.85690801382065,25.767903026187962L56.114610011577604,25.78545540462289L56.24346101045609,25.799726517560348L56.50116300821304,25.815892818790125L56.565588507652286,25.827515697486675L56.630014007091525,25.836430274336678L56.75886500597,25.845690305833383L57.0809925031662,25.86121093076949L57.4031200003624,25.880760104095685L57.46754549980164,25.894566553886765L57.531970999240876,25.90493920400571L58.49835349082947,25.943814038802852L58.94933198690415,25.983204204166505L59.335884983539586,26.021027807707345L59.400310482978824,26.046124362974044L59.5291614818573,26.06602258576539L59.658012480735785,26.08284322964296L59.91571447849274,26.102823298089213L60.49554397344589,26.137699163477187L60.62439497232437,26.16383184025957L60.688820471763606,26.182126859552795L60.88209697008133,26.201021117493898L61.268649966716765,26.228488026213313L61.78405396223068,26.267074922132775L61.84847946166992,26.293037741316326L62.04175595998764,26.317118484415975L62.10618145942688,26.33441903247908L62.68601095438003,26.370971245228116L62.750436453819276,26.395861185121632L63.459116947650905,26.44408545402816L63.65239344596863,26.48232189226751L63.716818945407866,26.508382132516374L63.84566994428634,26.530296451847647L63.974520943164826,26.54976463919978L64.87647793531417,26.606878001231234L65.19860543251038,26.65787992930268L65.32745643138885,26.695244473735517L65.52073292970657,26.727894081535307L65.64958392858505,26.754359661070396L65.97171142578125,26.787611979888737L66.03613692522049,26.811066368076723L66.42268992185592,26.846399588575522L66.5515409207344,26.874771196954462L66.61596642017365,26.89539775169514L66.74481741905213,26.915010450088584L66.80924291849136,26.930411244960375L67.00251941680908,26.95061633886001L67.13137041568757,26.97010042246312L67.45349791288375,27.00038870919127L67.517923412323,27.022313201553708L68.09775290727615,27.069693123410733L68.22660390615462,27.105848971706497L68.48430590391159,27.14311661553682L68.54873140335083,27.169394404446216L68.61315690279007,27.189096032076463L68.87085890054702,27.216739666935986L69.12856089830399,27.2493260228677L69.19298639774323,27.272907466303195L69.38626289606094,27.29919255978975L69.51511389493942,27.323111634001876L69.57953939437867,27.341551880650478L69.6439648938179,27.35671666520997L69.70839039325715,27.369928006964923L69.77281589269637,27.381973200261672L69.83724139213562,27.393336456156952L69.9660923910141,27.408444441202054L70.03051789045334,27.42167495826877L70.35264538764955,27.4505839120949L70.41707088708877,27.47215418267512L70.67477288484574,27.502108365426754L70.86804938316345,27.532950838339485L70.99690038204194,27.560083635390903L71.38345337867737,27.602511528635L71.51230437755585,27.636767177395356L71.83443187475204,27.679498324033236L72.092133872509,27.72307803666409L72.15655937194825,27.753728872078128L72.28541037082672,27.78117272679342L73.05851636409758,27.852823075199293L73.50949486017227,27.928701217948113L73.5739203596115,27.97896780041239L73.70277135848998,28.01864264686797L73.76719685792924,28.047216837678775L73.83162235736846,28.069142469551714L73.89604785680771,28.087090800510882L74.02489885568619,28.10746937165517L74.2181753540039,28.134199631562275L74.47587735176086,28.169723207746063L74.54030285120011,28.195930898108077L74.79800484895706,28.231342118197404L74.99128134727478,28.26746475261429L75.24898334503173,28.309120800360958L75.44225984334946,28.349209268678297L75.50668534278869,28.378312700769357L75.57111084222794,28.40083990418588L75.63553634166718,28.419427287622135L75.69996184110641,28.435662613519263L75.82881283998489,28.45560214546286L75.89323833942413,28.47267834658684L75.95766383886338,28.48804838366796L76.15094033718108,28.512705485994037L76.21536583662034,28.532665484367833L76.27979133605956,28.5498190548193L76.40864233493805,28.57049296745464L76.53749333381653,28.593323464584028L76.60191883325577,28.612249630696965L77.05289732933043,28.66049034921174L77.24617382764816,28.705399451989702L77.50387582540513,28.75377118352813L77.69715232372283,28.798971914201875L77.82600332260131,28.83693270786844L77.9548543214798,28.870585042677643L78.21255631923675,28.912658339720412L78.47025831699371,28.95994989638903L78.66353481531144,29.00496406565093L78.72796031475067,29.03754067545141L78.79238581418991,29.062666584024072L78.85681131362915,29.083327989084495L79.24336431026458,29.129470763376816L79.62991730690003,29.19126922712649L79.7587683057785,29.239804051985434L79.82319380521776,29.274664654654316L80.08089580297471,29.318652274534994L80.27417230129242,29.36245332090763L80.33859780073166,29.394559456239808L80.53187429904938,29.43135291498533L80.59629979848862,29.45929295970041L80.66072529792785,29.481932790446226L80.78957629680633,29.507294924237414L80.91842729568482,29.534331860427248L81.30498029232025,29.58626151331503L81.49825679063797,29.635407667491744L81.5626822900772,29.670913177302243L81.75595878839492,29.71032614873459L81.82038428783417,29.740030210857658L81.8848097872734,29.763920761844123L82.01366078615187,29.790423864595894L82.07808628559113,29.81242046746979L82.46463928222657,29.862420606898326L82.72234127998352,29.91715764752824L82.78676677942275,29.956207040394272L82.91561777830124,29.992083557824802L83.04446877717972,30.02609777056536L83.1733197760582,30.059038979675673L83.23774527549745,30.08507892171157L83.30217077493667,30.106995855176287L83.36659627437592,30.12644490072274L83.43102177381515,30.14442504796729L83.62429827213288,30.174204468308783L83.75314927101135,30.204782318714265L83.88200026988983,30.235880647729605L84.07527676820754,30.273741038602882L84.20412776708602,30.309309484715172L84.26855326652527,30.33709145123794L84.3329787659645,30.3602104058437L84.71953176259994,30.412996405453615L84.7839572620392,30.451188786605517L84.91280826091767,30.487178322803285L85.10608475923537,30.52845569178185L85.36378675699234,30.579604058549503L85.55706325531007,30.630183828727098L85.75033975362777,30.68051415793022L85.81476525306702,30.717395860511456L85.9436162519455,30.75291556107695L86.07246725082398,30.787659481004397L86.20131824970245,30.821979353120412L86.52344574689864,30.87642371768688L86.71672224521637,30.929519553972174L86.84557324409485,30.975048802923247L87.81195573568344,31.106154469816445L88.0696577334404,31.21286847263855L88.19850873231887,31.290982827225907L88.26293423175812,31.344910688792698L88.52063622951508,31.405593159357664L88.64948722839355,31.456230607978462L88.71391272783279,31.493737415434687L88.9071892261505,31.537679604229087L89.03604022502898,31.578388269665066L89.16489122390746,31.61719232443289L89.35816772222519,31.662119964471305L89.48701872110367,31.70355599681692L89.5514442205429,31.735669174834555L89.68029521942138,31.769478660824834L89.93799721717834,31.818956979431377L90.1956992149353,31.877990445444382L90.64667771100999,31.96515073597677L90.71110321044921,32.02487598564111L90.77552870988846,32.0681520452336L90.83995420932769,32.10156450800744L90.96880520820618,32.1365411430554L91.16208170652389,32.17999186685354L91.22650720596313,32.213571259007914L91.29093270540238,32.24123376940049L91.48420920372008,32.280443949017624L91.54863470315934,32.311526352459275L91.61306020259856,32.33774096603241L91.67748570203781,32.36104674013338L92.19288969755173,32.435986492658884L92.25731519699096,32.48861019127413L92.45059169530869,32.543231999824684L92.90157019138336,32.63011810289936L93.09484668970109,32.705587298125515L93.61025068521501,32.813517429529725L93.67467618465423,32.88615133416601L93.80352718353271,32.94550699743327L93.86795268297196,32.9890258073098L93.93237818241118,33.02304842237643L94.12565468072891,33.06725810969558L94.19008018016815,33.10173667179918L94.31893117904663,33.138352977383484L94.4477821779251,33.17629630823989L94.76990967512131,33.2391515026611L94.83433517456055,33.284909086005506L95.0920371723175,33.344648012819626L95.15646267175676,33.38858317339565L95.22088817119598,33.42304790867783L95.28531367063523,33.45184222323265L95.47859016895293,33.49351552853031L95.54301566839219,33.52667344705359L95.60744116783142,33.55472509212451L95.80071766614914,33.59609776773173L95.86514316558838,33.62911672901221L96.3805471611023,33.71486077963993L96.63824915885925,33.79949692217075L96.76710015773773,33.86693263601118L96.8959511566162,33.924083595984335L96.96037665605544,33.966735210170036L97.15365315437317,34.017459589694916L97.34692965269087,34.07311342817846L97.41135515213013,34.114928900327506L97.47578065156937,34.14845022851258L97.5402061510086,34.1770098633805L97.73348264932632,34.219533495967724L98.24888664484024,34.31315788799118L98.37773764371872,34.386454012261794L98.5065886425972,34.44759163783984L98.63543964147567,34.50146966754931L98.69986514091492,34.54240900561753L98.89314163923262,34.59286342420645L99.02199263811112,34.64044395698771L99.15084363698959,34.686338620243525L99.4729711341858,34.757402521532015L99.92394963026047,34.86135810106382L99.9883751296997,34.93253036159678L100.18165162801742,35.001680752766475L100.3105026268959,35.06085461285119L100.69705562353134,35.14961099068329L100.76148112297058,35.21177319884953L100.89033212184907,35.26691391419336L101.01918312072755,35.31788019580288L101.2768851184845,35.38433017961591L101.53458711624145,35.46021831536322L101.66343811511994,35.52381648317399L101.98556561231612,35.6072954062154L102.04999111175538,35.66647161685406L102.11441661119461,35.71107803450007L102.5653951072693,35.80179820596807L102.62982060670852,35.86540496541778L103.01637360334396,35.95880039446024L103.27407560110092,36.051838056610215L103.33850110054017,36.116929986060946L103.4029265999794,36.1652692689533L103.98275609493257,36.278217543890186L104.11160709381105,36.3647352346431L104.30488359212875,36.444844382393214L104.69143658876419,36.54954362661959L104.75586208820343,36.62183369094875L105.01356408596038,36.703181517699086L105.20684058427811,36.78056449080265L105.27126608371734,36.836535799151996L105.33569158315659,36.87967194309773L105.5289680814743,36.934258085457316L106.23764857530594,37.0729517581093L106.43092507362365,37.185248161447596L106.62420157194138,37.281783127116036L106.68862707138061,37.3494408994124L106.75305257081986,37.39978419013449L106.94632906913756,37.459280425784186L107.01075456857681,37.50475933925296L107.07518006801605,37.54183673524991L108.04156255960464,37.711990116154425L108.23483905792236,37.84389903889305L108.36369005680083,37.94296768738789L108.42811555624009,38.01238235835962L108.55696655511856,38.07400475220246L108.6213920545578,38.12097829789317L108.81466855287552,38.17921600848304L109.00794505119323,38.24428914193074L109.07237055063248,38.29339526224149L109.20122154951096,38.343004125197915L109.33007254838944,38.39295309570094L109.45892354726791,38.443138675466614L109.58777454614639,38.49350468274899L109.7810510444641,38.55416544849782L109.90990204334258,38.610899408513006L110.03875304222106,38.66531278843486L110.16760404109955,38.71836932364768L110.29645503997803,38.77064133815751L110.4253060388565,38.82248110220473L111.0695610332489,38.956476618645674L111.32726303100586,39.078270831029464L111.58496502876281,39.19288035714224L111.64939052820206,39.27205151207234L111.7138160276413,39.32996556151737L111.84266702651978,39.385563331668415L112.0359435248375,39.450265531872915L112.22922002315521,39.520504355415554L112.35807102203368,39.58363012757621L112.55134752035141,39.65305031461906L112.93790051698684,39.75801377025593L113.06675151586532,39.84216367285677L113.1956025147438,39.913860946982865L113.26002801418305,39.96749481219031L113.45330451250075,40.03157192991827L113.51773001194,40.080663287409266L113.58215551137924,40.12077502320707L113.77543200969696,40.176866083615735L114.29083600521088,40.29627609575578L114.61296350240707,40.42178955616786L114.74181450128555,40.51870437763367L115.12836749792099,40.64186877457697L115.38606949567794,40.759273805792205L115.4504949951172,40.840613393416355L115.51492049455642,40.90032554933476L115.57934599399567,40.94706716345426L115.9658989906311,41.040766696234435L116.15917548894882,41.129924646016L116.6101539850235,41.2605622715372L116.73900498390198,41.3610604733745L116.9322814822197,41.454590527202434L116.99670698165895,41.521803355414505L117.18998347997665,41.59546277788364L117.2544089794159,41.65078281340288L117.57653647661209,41.73972692384199L117.64096197605133,41.804265109939124L117.70538747549057,41.85417157588004L117.8986639738083,41.91771049747621L118.091940472126,41.98950581638382L118.15636597156525,42.043819817031434L118.22079147100449,42.08765686117203L118.28521697044373,42.12521069002065L118.34964246988297,42.15900642414305L118.7361954665184,42.24703016778159L119.12274846315384,42.36787770251743L119.50930145978927,42.508706497299414L119.76700345754624,42.63890841611523L119.89585445642471,42.739926267561714L120.21798195362092,42.85792518012814L120.47568395137787,42.97477532724719L120.92666244745254,43.12577683288416L121.05551344633102,43.23955846319877L121.24878994464873,43.342662141949404L121.37764094352721,43.42778200005055L121.44206644296646,43.49049901270395L121.63534294128418,43.563102975633356L121.69976844072342,43.618334120081656L121.8286194396019,43.67484288486668L121.89304493904113,43.72044353793858L122.08632143735886,43.782937450180235L123.18155492782593,44.02084131510287L123.24598042726517,44.17544175193078L123.3104059267044,44.28006604912629L123.37483142614364,44.354716496991344L123.63253342390061,44.44707237475858L123.82580992221831,44.5382407303887L124.08351191997528,44.64072333150874L124.14793741941452,44.71417456148363L124.21236291885376,44.77021880322035L124.47006491661071,44.85180741135129L124.53449041604996,44.912769583328576L124.59891591548919,44.961361810838184L124.72776691436768,45.014576582112866L124.85661791324615,45.07059150715678L124.98546891212463,45.12831611058466L125.11431991100311,45.18709610716538L125.62972390651703,45.31924386304642L125.95185140371323,45.45932903957876L126.01627690315246,45.55556371071932L126.59610639810563,45.723267254679605L126.66053189754486,45.836143952970765L127.36921239137651,46.03915843403081L127.69133988857268,46.22275478077232L127.88461638689041,46.37006979999069L127.94904188632965,46.4708642726612L128.14231838464738,46.56858692580428L128.27116938352586,46.65208765360167L128.3355948829651,46.71463201337875L128.850998878479,46.85197628913597L128.91542437791824,46.946891867158286L128.97984987735748,47.01635910237639L129.04427537679672,47.07056029052425L129.23755187511443,47.14069384087201L129.3664028739929,47.20788963042072L129.43082837343215,47.26077528896285L129.4952538728714,47.305077827513216L130.0106578683853,47.43250364898312L130.33278536558151,47.57221723025589L130.39721086502075,47.66872303248543L130.59048736333847,47.76468314311885L131.04146585941314,47.911319355270386L131.17031685829164,48.02480727871757L131.814571852684,48.22085705373035L132.13669934988022,48.40272430778162L132.20112484931946,48.5247087062497L132.32997584819793,48.62365702352753L132.3944013476372,48.695913728829474L132.7809543442726,48.81674788945875L132.84537984371184,48.902186397179726L133.2319328403473,49.03121662464811L133.29635833978654,49.12162011026844L133.87618783473968,49.29303212234317L134.13388983249664,49.44812842181856L134.26274083137514,49.56734920957827L134.5204428291321,49.69129349813808L135.10027232408524,49.883980892139455L135.22912332296372,50.025957522247325L135.42239982128143,50.150744525199144L135.5512508201599,50.252046010146664L135.61567631959915,50.32605485645847L135.93780381679534,50.436688699329444L136.13108031511305,50.54288600863291L136.45320781230924,50.67309624578858L136.58205881118775,50.77786469134001L136.8397608089447,50.89409024771742L136.96861180782318,50.990547767332465L137.03303730726242,51.06178633060801L137.09746280670166,51.1179083131411L137.22631380558013,51.17835102624545L137.35516480445864,51.24141872242725L137.67729230165483,51.346366583056664L137.87056879997255,51.449675977382434L137.999419798851,51.53858794401134L138.19269629716874,51.63237639475308L138.38597279548645,51.729141032370705L138.6436747932434,51.8412862053754L138.83695129156112,51.949200972514014L139.09465328931807,52.06820782274149L139.15907878875734,52.153191963078314L139.22350428819658,52.217768394705274L139.67448278427125,52.35179931961446L139.80333378314972,52.459499238062726L139.9321847820282,52.55142126292009L140.12546128034592,52.6475778849253L140.18988677978516,52.71895248114507L140.57643977642059,52.843988197303354L140.64086527585982,52.93273462919865L140.89856727361678,53.040941669381965L141.15626927137373,53.160919750129906L141.34954576969147,53.27425912191427L141.41397126913068,53.3560617124913L141.47839676856995,53.41894519295619L141.5428222680092,53.470483124578266L141.67167326688767,53.52904228052351L141.86494976520538,53.605678228038464L142.31592826128008,53.74870523676571L142.3803537607193,53.8484091678758L142.70248125791548,53.97775891427788L142.83133225679398,54.0832181791727L142.89575775623322,54.16043176039148L142.96018325567243,54.22070089001689L143.54001275062564,54.38260042955355L143.7977147483826,54.53577331056629L143.86214024782183,54.641703819823164L143.92656574726104,54.719288906026485L143.99099124670028,54.77987561423441L144.11984224557878,54.84431966241679L144.44196974277497,54.953306387143655L144.50639524221418,55.032781416261614L144.6352462410927,55.10864721535732L144.69967174053193,55.168264482157795L144.76409723997116,55.218141505417876L144.95737373828888,55.29041729503578L145.08622473716736,55.36204935018651L145.1506502366066,55.419164832579206L145.21507573604583,55.4675792471538L145.79490523099898,55.62419142141459L145.98818172931672,55.76078345257159L146.56801122426987,55.970914629516336L146.95456422090533,56.18269545655763L147.01898972034454,56.32406884298255L147.40554271697997,56.494828726079255L147.46996821641923,56.61163096670883L147.53439371585847,56.69605862185815L147.66324471473692,56.77542558816435L148.04979771137238,56.90931298376114L148.4363507080078,57.07610790534038L148.50077620744707,57.190616968814574L149.01618020296098,57.374953849234714L149.08060570240022,57.500029508584866L149.27388220071794,57.61854579389733L149.46715869903562,57.733167875358546L149.7248606967926,57.860036434260195L149.85371169567108,57.96523481073604L150.11141369342803,58.08657340836067L150.49796669006346,58.24686273099308L150.75566868782042,58.40146891639321L150.82009418725968,58.50885113073135L151.01337068557737,58.61717443058748L151.14222168445588,58.71145867171762L151.3354981827736,58.811997152955044L151.59320018053057,58.93101910862019L151.72205117940902,59.03181426021528L151.85090217828753,59.12169108104182L151.91532767772676,59.190324435003106L151.97975317716597,59.246217626069715L152.43073167324067,59.382884846314035L152.55958267211912,59.49439437698314L152.6240081715584,59.57606357048259L153.01056116819382,59.71375244721099L153.07498666763306,59.81116475169296L153.1394121670723,59.88441407143929L153.26826316595077,59.95798824768712L153.39711416482925,60.031772130897075L154.1702201581001,60.25430180714148L154.75004965305328,60.52197492648398L155.00775165081026,60.74233093097103L155.32987914800646,60.94933825119376L155.39430464744567,61.08851617989471L155.71643214464186,61.246958668033486L155.78085764408112,61.35702728360653L155.84528314352036,61.43807453425236L156.10298514127732,61.54677158903152L156.16741064071655,61.62702253071124L156.553963637352,61.765449231122865L156.81166563510897,61.908781058618594L156.8760911345482,62.00986020172415L156.94051663398741,62.08559069280785L157.06936763286592,62.16121274957223L157.13379313230516,62.22168674052465L157.45592062950135,62.33353113319782L157.64919712781906,62.446031756462745L157.77804812669754,62.54381648535217L157.97132462501526,62.647946399816185L158.16460112333297,62.755921887584165L158.35787762165072,62.86624909851819L158.48672862052916,62.962830372825344L158.87328161716462,63.11203161485399L158.93770711660386,63.216774420067004L159.0665581154823,63.31008197485994L159.1954091143608,63.396543172462L159.77523860931396,63.58579121612842L159.8396641087532,63.71462423318122L159.90408960819246,63.80721711010256L159.9685151076317,63.87806590294506L160.87047209978104,64.1351278213672L161.128174097538,64.3508183073424L161.38587609529495,64.54175398193102L161.45030159473419,64.6717090461902L161.6435780930519,64.79587489771262L161.70800359249114,64.88578286119326L161.90128009080885,64.98597074865673L162.03013108968736,65.0769329310039L162.1589820885658,65.16237744195473L162.481109585762,65.29088167976934L162.67438608407974,65.41437526244539L162.80323708295822,65.51941553751192L162.86766258239746,65.59792212042514L162.99651358127593,65.67599682314415L163.18979007959365,65.76933031896688L163.3830665779114,65.87184867677429L163.51191757678984,65.96439257528696L163.70519407510756,66.06649930556546L163.8984705734253,66.17437923825038L163.96289607286454,66.25465470520399L164.15617257118225,66.3494832176899L164.34944906949997,66.45307610222983L164.8648530650139,66.63992550459307L164.92927856445314,66.7676388669863L165.0581295633316,66.8754832022096L165.3802570605278,67.01830308381194L165.702384557724,67.18220001022128L165.76681005716324,67.29619218345034L165.83123555660248,67.38024150477125L165.96008655548096,67.46199392539192L166.0245120549202,67.52671122959677L166.1533630537987,67.59688515023352L166.28221405267715,67.67035079240287L166.4754905509949,67.76149578128341L166.5399160504341,67.83187821256662L166.79761804819105,67.93692492650295L167.11974554538725,68.07855736496568L167.24859654426575,68.19500758648364L167.63514954090118,68.3593610014093L167.69957504034045,68.47373061917669L167.76400053977966,68.55811587587363L167.8284260392189,68.62451347454052L167.89285153865814,68.68012439561387L168.08612803697585,68.76081986832655L168.21497903585436,68.84080850321078L168.40825553417204,68.93618385923037L168.4726810336113,69.00920806222554L168.665957531929,69.10044617968312L168.7948085308075,69.18682549088365L168.92365952968598,69.27029543555447L168.98808502912522,69.33620597786283L169.05251052856445,69.39158383736593L169.3102125263214,69.48816627566268L169.5679145240784,69.60953063348047L169.6323400235176,69.69820740979944L169.69676552295684,69.76727755444361L169.9544675207138,69.87221441860044L170.01889302015303,69.9510524503963L170.14774401903153,70.03012780636307L170.21216951847074,70.09346372630611L170.34102051734925,70.16325556683465L170.4054460167885,70.22103025335149L170.46987151622773,70.27159760607356L170.5987225151062,70.3337549337797L170.66314801454544,70.38696074705209L170.79199901342392,70.45071890276188L170.98527551174163,70.536746508093L171.11412651062014,70.62023028377273L171.17855201005935,70.68626155195169L171.56510500669478,70.82157070866957L171.62953050613405,70.91871495714489L171.69395600557328,70.99296321928693L171.95165800333024,71.10139453214644L172.0805090022087,71.19840929071053L172.2093600010872,71.28859186837083L172.46706199884414,71.40667252890864L172.91804049491884,71.58959907426178L173.11131699323653,71.74742949182783L173.24016799211503,71.87419318186888L173.36901899099348,71.98232866984388L173.43344449043275,72.06325155821632L173.6911464881897,72.17600717693647L173.81999748706818,72.27577332546585L173.88442298650742,72.3517012376811L173.94884848594666,72.41332029088339L174.14212498426437,72.4985052679344L174.20655048370364,72.56569039448712L174.39982698202132,72.65424756028307L174.4642524814606,72.72347375175622L174.65752897977828,72.81328810123912L174.850805478096,72.91548197303804L175.10850747585297,73.04123982940584L175.4950604724884,73.21344412222037L175.55948597192764,73.3329000104761L175.7527624702454,73.45298827419175L175.8171879696846,73.54118933804938L175.94603896856307,73.62640322900815L176.07488996744158,73.70984256790109L176.1393154668808,73.77606019408957L176.2681664657593,73.84811360856926L176.33259196519853,73.90751151455878L176.46144296407698,73.97548788998036L176.52586846351625,74.03244548975948L176.59029396295549,74.08279774137762L176.65471946239472,74.1291838254869L176.7835704612732,74.18938269390279L176.91242146015168,74.25787219151485L176.97684695959092,74.31515837489398L177.23454895734787,74.41431481723022L177.2989744567871,74.49001004328058L177.42782545566558,74.56784173465698L177.62110195398333,74.66317737616338L177.74995295286178,74.75281698571136L177.94322945117952,74.85527584007986L178.71633544445038,75.11166156872912L178.97403744220733,75.33053513749265L179.16731394052508,75.51066750494147L179.48944143772127,75.70013538963332L179.61829243659972,75.84638748264358L179.81156893491743,75.98301501272202L180.1981219315529,76.16279437572187L180.26254743099213,76.28697578143563L180.3913984298706,76.39410332485497L180.58467492818832,76.50733304909721L180.77795142650604,76.62424183350666L180.84237692594527,76.71071568512744L180.9068024253845,76.77893153568726L181.4866319203377,76.96691590900323L181.55105741977692,77.09605878286587L181.61548291921616,77.18989971566876L181.67990841865537,77.26255652522356L181.80875941753388,77.3388639865393L181.93761041641235,77.41736775613609L182.13088691473007,77.51356818808476L182.45301441192626,77.65315916527233L182.58186541080477,77.76967446496363L182.64629091024398,77.85596548077392L182.71071640968322,77.92412488486782L182.77514190912248,77.98140828054419L183.2905459046364,78.14693951595481L183.87037539958953,78.39395218042597L184.19250289678573,78.62427310333102L184.70790689229966,78.89393750936453L184.77233239173887,79.07218011983727L184.96560889005661,79.22845758667879L185.22331088781357,79.3880236030922L185.41658738613128,79.5331335754573L185.67428938388827,79.68604347436847L185.86756588220595,79.82718936235469L186.06084238052367,79.96129459545938L186.1252678799629,80.05823128829729L186.18969337940217,80.13286981558734L186.31854437828062,80.21060891374825L186.83394837379456,80.38913843064941L186.96279937267303,80.52924170869944L187.0916503715515,80.64629220205101L187.22050137043001,80.74951990042025L187.5426288676262,80.89397221492935L187.86475636482237,81.06319184385706L188.3801603603363,81.29687003709579L188.44458585977554,81.45360376103447L188.50901135921478,81.56416784478093L188.76671335697176,81.69661944423515L188.95998985528945,81.82568857956753L189.15326635360717,81.95273415365132L189.6686703491211,82.16130614100405L189.79752134799958,82.31954436997803L190.05522334575653,82.48069513216058L190.11964884519577,82.59393606636353L190.184074344635,82.6784370210032L190.24849984407425,82.74569398790491L190.37735084295272,82.81916391489399L190.5062018418312,82.89636457654774L190.69947834014891,82.99237190756718L190.89275483846666,83.09967211604275L190.95718033790587,83.18062046969499L191.08603133678437,83.2623259390201L191.21488233566285,83.34449159497339L191.66586083173752,83.50981296769723L191.92356282949447,83.67532900200719L192.05241382837295,83.80779874862489L192.18126482725145,83.92044959846395L192.3101158261299,84.02121206884809L192.37454132556917,84.09825553131891L192.50339232444762,84.1776594865066L192.69666882276536,84.27507163478923L192.8255198216438,84.3666997600762L193.01879631996155,84.47146120347965L193.14764731884003,84.56751074028813L193.34092381715774,84.67493390644117L193.40534931659698,84.75598562082232L193.46977481603622,84.82121742275258L194.1140298104286,85.02638790582436L194.17845530986784,85.16609984480571L194.30730630874635,85.28314334785888L194.37173180818556,85.36997614021685L194.4361573076248,85.43868546476993L194.50058280706406,85.49652366725233L194.69385930538175,85.5810584947689L194.75828480482102,85.64838904041714L194.8871358036995,85.7220155419194L195.0804123020172,85.8160351832969L195.20926330089569,85.90567514223673L195.33811429977416,85.99269616755069L195.46696529865264,86.07814287407689L196.0467947936058,86.27899241582911L196.11122029304505,86.4161236244677L196.30449679136277,86.54827271763719L196.43334779024124,86.66080809932566L196.56219878911972,86.76157525412557L196.6910497879982,86.85529034862901L196.8199007868767,86.94477124834239L196.8843262863159,87.01508718898216L197.07760278463365,87.10715599718908L197.46415578126906,87.26217056282054L197.5285812807083,87.37180670301119L197.78628327846525,87.5041098248216L197.979559776783,87.63338277617987L198.1728362751007,87.76084354249136L198.30168727397918,87.87058072112626L198.36611277341845,87.95305634634344L198.6238147711754,88.06906907639429L198.88151676893236,88.20520702795756L199.07479326725004,88.33678975300428L199.1392187666893,88.43237566468082L199.20364426612855,88.50636052972297L199.2680697655678,88.56738180817227L199.4613462638855,88.65389452935062L199.71904826164246,88.7723413514271L199.84789926052093,88.87667312213328L200.1056012582779,89.00580841531422L200.17002675771715,89.09991995064681L200.2988777565956,89.1896564665311L200.36330325603484,89.26013169409794L200.68543075323106,89.3855834208193L200.87870725154875,89.51075145234861L200.943132750988,89.60248263069023L201.0719837498665,89.6907879737677L201.20083474874497,89.77703189846218L201.32968574762344,89.86204193073914L201.39411124706268,89.92967830952932L201.5873877453804,90.0201541736877L201.65181324481964,90.09107301021898L201.78066424369814,90.16688207237353L201.97394074201583,90.26225562932603L202.0383662414551,90.33611012292154L202.16721724033354,90.41367910000851L202.553770236969,90.55998637043736L202.7470467352867,90.69764849721163L202.94032323360443,90.8301235377931L203.00474873304367,90.9262344836476L203.26245073080062,91.05039290273392L203.64900372743608,91.22461981432161L204.48653522014618,91.54517903427617L204.74423721790313,91.80396943516945L204.87308821678164,91.992462973982L205.19521571397783,92.18860734296105L205.38849221229555,92.35611551523274L205.517343211174,92.48983232034178L205.77504520893098,92.6364758517563L206.09717270612717,92.80746435780672L206.35487470388412,92.97644576158204L206.61257670164107,93.1442110695433L206.8058531999588,93.29464594671455L207.38568269491194,93.53418809171103L207.7722356915474,93.77739671541633L208.41649068593978,94.0890559510226L208.48091618537904,94.29262267956548L208.54534168481828,94.43132798664585L208.738618183136,94.564246980758L208.80304368257524,94.66056068856767L209.12517117977143,94.8011515941287L209.2540221786499,94.91861892570114L209.51172417640686,95.05531454597337L209.5761496758461,95.15388091572403L209.64057517528533,95.22957269377395L209.70500067472457,95.29153527888508L209.7694261741638,95.34525886892679L209.83385167360308,95.39404054123301L209.8982771730423,95.43985558359178L210.41368116855622,95.59966706231766L210.60695766687394,95.74515508382532L210.99351066350937,95.93161762053941L211.25121266126632,96.10958314357013L211.89546765565873,96.38149148256778L211.95989315509797,96.56114554228836L212.02431865453718,96.6854411172182L212.47529715061188,96.87550937043015L212.79742464780807,97.07200536629387L212.9907011461258,97.23935764677812L213.11955214500426,97.37273091408002L213.18397764444353,97.46923434466072L213.24840314388277,97.54361291459648L213.31282864332198,97.60471804745136L213.57053064107893,97.70726942184008L214.08593463659287,97.90050434982496L214.1503601360321,98.03290110791747L214.34363663434982,98.16169769084105L214.47248763322833,98.27187392944332L214.53691313266754,98.35442511876346L214.665764131546,98.43684376606079L214.98789162874223,98.56848372327379L215.43887012481687,98.76246599691696L215.56772112369538,98.91169299839997L215.7609976220131,99.05047825870484L215.88984862089157,99.16657225912367L216.21197611808776,99.31825470453609L216.40525261640548,99.45845997617826L216.59852911472322,99.59175971257861L217.17835860967637,99.81917016115386L217.2427841091156,99.97198791115169L217.43606060743332,100.11278116925935L217.62933710575103,100.24634345986559L217.7581881046295,100.3591956891183L217.82261360406875,100.44326075584911L218.2091666007042,100.59178075039131L218.40244309902192,100.72990807616439L218.46686859846116,100.82911601121559L218.5957195973396,100.92130385142103L218.78899609565735,101.02559342263288L218.91784709453583,101.12080953424903L219.0466980934143,101.21056825635257L219.23997459173202,101.31335597751966L219.30440009117126,101.3913350016032L219.3688255906105,101.4544288074366L219.81980408668517,101.60635290670129L220.14193158388136,101.77892097868671L220.27078258275986,101.91501099448128L220.3352080821991,102.0129373713005L220.3996335816383,102.08796112681613L220.6573355793953,102.19802786684235L220.72176107883453,102.28032696444546L221.04388857603072,102.41095731176054L221.10831407546996,102.50558125998188L221.36601607322692,102.62730456420297L221.55929257154466,102.74902842843656L221.62371807098387,102.83828629721714L221.75256906986237,102.92428516035415L222.20354756593704,103.08935317502156L222.26797306537628,103.20459534447062L222.59010056257247,103.35470454950556L223.36320655584336,103.63882692892227L223.68533405303955,103.89004976055016L223.81418505191803,104.0730648777221L223.87861055135727,104.19900873989837L224.071887049675,104.32296907768067L224.13631254911422,104.41346971708032L224.71614204406737,104.61278204194564L225.10269504070283,104.82891930953218L225.36039703845978,105.02291598304608L225.42482253789902,105.15538516886426" fill="none"></path></g></g></g></g><g opacity="0.2"><g><g><g><path style="fill: none;" stroke="rgb(255, 112, 67)" stroke-width="2px" d="M32.53487721681595,25.414279624221045L32.59930271625519,25.414279624221045L32.92143021345139,25.414279624221045L33.1147067117691,25.414279624221045L33.17913221120835,25.414279624221045L33.37240870952606,25.414279624221045L33.50125970840454,25.414279624221045L33.7589617061615,25.414279624221045L34.532067699432375,25.414279624221045L34.789769697189335,25.414279624221045L34.91862069606781,25.414279624221045L35.04747169494629,25.414279624221045L35.111897194385534,25.414279624221045L35.24074819326401,25.414279624221045L35.62730118989945,25.414279624221045L35.69172668933869,25.414279624221045L35.756152188777925,25.414279624221045L35.82057768821716,25.414279624221045L35.88500318765641,25.414279624221045L36.400407183170316,25.414279624221045L36.59368368148803,25.414279624221045L36.78696017980575,25.414279624221045L36.85138567924499,25.414279624221045L36.91581117868423,25.414279624221045L36.98023667812347,25.414279624221045L37.30236417531967,25.414279624221045L37.81776817083359,25.414279624221045L37.88219367027283,25.414279624221045L38.268746666908264,25.414279624221045L38.78415066242218,25.414279624221045L38.9774271607399,25.414279624221045L39.04185266017914,25.414279624221045L39.492831156253814,25.414279624221045L39.68610765457153,25.414279624221045L39.81495865345001,25.414279624221045L40.33036264896393,25.414279624221045L40.52363914728165,25.414279624221045L40.58806464672089,25.414279624221045L41.16789414167404,25.414279624221045L41.296745140552524,25.414279624221045L41.36117063999176,25.414279624221045L41.425596139431,25.414279624221045L41.876574635505676,25.414279624221045L42.198702132701875,25.414279624221045L42.32755313158035,25.414279624221045L42.3919786310196,25.414279624221045L42.64968062877655,25.414279624221045L42.97180812597275,25.414279624221045L43.03623362541199,25.414279624221045L43.22951012372971,25.414279624221045L43.61606312036515,25.414279624221045L43.680488619804386,25.414279624221045L43.80933961868286,25.414279624221045L44.002616117000585,25.414279624221045L44.13146711587906,25.414279624221045L44.1958926153183,25.414279624221045L44.32474361419678,25.414279624221045L44.45359461307525,25.414279624221045L44.51802011251449,25.414279624221045L44.96899860858917,25.414279624221045L45.48440260410309,25.414767795241325L45.54882810354233,25.414945311975973L45.613253602981565,25.41515241483306L45.870955600738526,25.416232308302146L46.51521059513092,25.420862536464146L46.579636094570155,25.421469051974185L46.70848709344864,25.422785634422787L46.96618909120559,25.425729453605665L47.159465589523315,25.428214687890698L47.22389108896255,25.429087478502694L47.28831658840179,25.430004648298365L47.48159308671951,25.432918881358788L48.25469907999039,25.446957496456985L48.641252076625825,25.455433920536294L48.83452857494354,25.460064148698272L48.963379573822024,25.463274242983108L49.02780507326126,25.464901479717362L49.15665607213974,25.468289090736846L49.4143580698967,25.475360174000205L49.67206006765366,25.48287504910019L49.80091106653214,25.48678041726237L50.123038563728336,25.497061594810585L51.02499555587769,25.529414019699658L51.34712305307389,25.542283982961425L51.411548552513125,25.54493194091989L51.669250550270085,25.55580484091691L51.733676049709324,25.55860072948757L51.991378047466284,25.570020972749738L52.05580354690552,25.572935205810158L52.184654545784,25.578867223359566L52.377931044101715,25.587964956010115L52.700058541297906,25.603675187026216L52.76448404073715,25.60688528131105L52.82890954017639,25.610139754779556L53.15103703737259,25.626796741713743L53.21546253681183,25.630199145794446L53.279888036251066,25.63364592905882L53.47316453456878,25.644119416402884L54.05299402952194,25.677019184557107L54.18184502840042,25.684637611085638L54.568398025035854,25.708114199242466L54.95495102167129,25.732567129439833L55.01937652111053,25.73673877270399L55.40592951774597,25.762330768615332L55.59920601606369,25.77549659310151L55.85690801382065,25.79342578330069L56.114610011577604,25.81178397227524L56.24346101045609,25.821133186966545L56.50116300821304,25.840142270634807L56.565588507652286,25.84495001553144L56.630014007091525,25.849802139611743L56.75886500597,25.85958035307844L57.0809925031662,25.884491868173654L57.4031200003624,25.910083864084996L57.46754549980164,25.91527622857336L57.531970999240876,25.920498179184186L58.49835349082947,26.00212629099852L58.94933198690415,26.04228945221199L59.335884983539586,26.07776321301857L59.400310482978824,26.083769195874066L59.5291614818573,26.095869919952378L59.658012480735785,26.10807419545924L59.91571447849274,26.132793400758583L60.49554397344589,26.190012961559198L60.62439497232437,26.20303085543318L60.688820471763606,26.209569388492607L60.88209697008133,26.229362504405543L61.268649966716765,26.269688389292448L61.78405396223068,26.32495526601198L61.84847946166992,26.331981970091668L62.04175595998764,26.353239599065443L62.10618145942688,26.36036985457369L62.68601095438003,26.42579956435164L62.750436453819276,26.433196094961865L63.459116947650905,26.516421857388014L63.65239344596863,26.53967654962652L63.716818945407866,26.547472492889682L63.84566994428634,26.563167930844568L63.974520943164826,26.578966920227995L64.87647793531417,26.692548044278443L65.19860543251038,26.73438282140982L65.32745643138885,26.75129129038479L65.52073292970657,26.77686849323491L65.64958392858505,26.79405803037305L65.97171142578125,26.83749045811623L66.03613692522049,26.84624795035873L66.42268992185592,26.899399419323732L66.5515409207344,26.91732860952289L66.61596642017365,26.926337583806134L66.74481741905213,26.944429497678726L66.80924291849136,26.953512437268074L67.00251941680908,26.98092397970952L67.13137041568757,26.999326547867742L67.45349791288375,27.045821139283554L67.517923412323,27.055199940097314L68.09775290727615,27.14076300619628L68.22660390615462,27.160082744150152L68.48430590391159,27.199018081282325L68.54873140335083,27.208811087810258L68.61315690279007,27.218648473521846L68.87085890054702,27.258205119225277L69.12856089830399,27.298205556765314L69.19298639774323,27.30827963145644L69.38626289606094,27.338620200019545L69.51511389493942,27.35899024532006L69.57953939437867,27.369212250623388L69.6439648938179,27.379463842049145L69.70839039325715,27.38974501959734L69.77281589269637,27.40004099020677L69.83724139213562,27.41038133999985L69.9660923910141,27.431106418769673L70.03051789045334,27.441520733868845L70.35264538764955,27.493947342834065L70.41707088708877,27.504509588545453L70.67477288484574,27.547039639554175L70.86804938316345,27.57921454770862L70.99690038204194,27.600782830968L71.38345337867737,27.666153368501096L71.51230437755585,27.68815065053587L71.83443187475204,27.743595043990034L72.092133872509,27.788447605610397L72.15655937194825,27.79970512519913L72.28541037082672,27.822338508866398L73.05851636409758,27.960298597808126L73.50949486017227,28.04251843207128L73.5739203596115,28.054367674108857L73.70277135848998,28.078154916551295L73.76719685792924,28.09007812389496L73.83162235736846,28.102030917361077L73.89604785680771,28.114013296949633L74.02489885568619,28.138037228371612L74.2181753540039,28.174295021422886L74.47587735176086,28.223008572021755L74.54030285120011,28.235242433651045L74.79800484895706,28.284458948331434L74.99128134727478,28.321648704239593L75.24898334503173,28.371604871980978L75.44225984334946,28.40934197115431L75.50668534278869,28.421967848905936L75.57111084222794,28.43463070931062L75.63553634166718,28.44730836277654L75.69996184110641,28.460015602364876L75.82881283998489,28.485511443378293L75.89323833942413,28.498292648272756L75.95766383886338,28.511103439289634L76.15094033718108,28.549691139483127L76.21536583662034,28.562605481928568L76.27979133605956,28.575549410496443L76.40864233493805,28.601503836407687L76.53749333381653,28.627569210278093L76.60191883325577,28.640638879866348L77.05289732933043,28.732851426983903L77.24617382764816,28.772763106156614L77.50387582540513,28.826328780835787L77.69715232372283,28.866773010212455L77.82600332260131,28.893873898368287L77.9548543214798,28.921063544891428L78.21255631923675,28.975768285284595L78.47025831699371,29.03088723139191L78.66353481531144,29.07248531954377L78.72796031475067,29.086405590152186L78.79238581418991,29.100355446883057L78.85681131362915,29.114320096675147L79.24336431026458,29.198684924815247L79.62991730690003,29.283966922751038L79.7587683057785,29.31260628927378L79.82319380521776,29.32695555865761L80.08089580297471,29.384633704356066L80.27417230129242,29.428154890466566L80.33859780073166,29.44271865923808L80.53187429904938,29.48654310310361L80.59629979848862,29.501203026773066L80.66072529792785,29.515892536564955L80.78957629680633,29.545338124924204L80.91842729568482,29.574887264712018L81.30498029232025,29.664155992646716L81.49825679063797,29.709126898756818L81.5626822900772,29.72417144201799L81.75595878839492,29.769445605883124L81.82038428783417,29.78458630404224L81.8848097872734,29.799756588323792L82.01366078615187,29.8301785187236L82.07808628559113,29.845415371780643L82.46463928222657,29.937420816041108L82.72234127998352,29.999263208473124L82.78676677942275,30.01478112969336L82.91561777830124,30.045898333970534L83.04446877717972,30.077119089676255L83.1733197760582,30.108450793341113L83.23774527549745,30.124138834765382L83.30217077493667,30.139871255373322L83.36659627437592,30.15561846904246L83.43102177381515,30.17139526883405L83.62429827213288,30.21887359882102L83.75314927101135,30.250649094322508L83.88200026988983,30.28252814125254L84.07527676820754,30.330531624912844L84.20412776708602,30.362662153883615L84.26855326652527,30.378764401022053L84.3329787659645,30.39488883775233L84.71953176259994,30.49217540486849L84.7839572620392,30.508477358333398L84.91280826091767,30.541162627099933L85.10608475923537,30.5903717452497L85.36378675699234,30.656326608700983L85.55706325531007,30.70605348399347L85.75033975362777,30.756009651734853L85.81476525306702,30.77271841438333L85.9436162519455,30.80619511192518L86.07246725082398,30.83977536089555L86.20131824970245,30.873459161294466L86.52344574689864,30.958090264536544L86.71672224521637,31.009163308400087L86.84557324409485,31.043342676349898L87.81195573568344,31.302812970156236L88.0696577334404,31.372939476871693L88.19850873231887,31.408154359106938L88.26293423175812,31.425802481142902L88.52063622951508,31.496616865205105L88.64948722839355,31.532186780909633L88.71391272783279,31.54999762661903L88.9071892261505,31.603592887420657L89.03604022502898,31.639451267818977L89.16489122390746,31.67539840658462L89.35816772222519,31.729511424528962L89.48701872110367,31.765710045335346L89.5514442205429,31.783838941860992L89.68029521942138,31.820192889810187L89.93799721717834,31.893174457341196L90.1956992149353,31.966540644463922L90.64667771100999,32.095891171775364L90.71110321044921,32.11446386013762L90.77552870988846,32.133066134622304L90.83995420932769,32.151683202168215L90.96880520820618,32.18900609562735L91.16208170652389,32.245167952550716L91.22650720596313,32.263940347239455L91.29093270540238,32.2827275349894L91.48420920372008,32.33925921844326L91.54863470315934,32.35814995762176L91.61306020259856,32.37706288639208L91.67748570203781,32.39600540128483L92.19288969755173,32.54839612144712L92.25731519699096,32.56754573919696L92.45059169530869,32.62516471265052L92.90157019138336,32.76044725751137L93.09484668970109,32.818791090964744L93.61025068521501,32.97541262663605L93.67467618465423,32.995102191120445L93.80352718353271,33.03454049233411L93.86795268297196,33.05430402212461L93.93237818241118,33.074082344976325L94.12565468072891,33.13357264067429L94.19008018016815,33.15345451495455L94.31893117904663,33.19327743575995L94.4477821779251,33.2332113045245L94.76990967512131,33.33343429429292L94.83433517456055,33.35354546102209L95.0920371723175,33.43425640304076L95.15646267175676,33.454485914259706L95.22088817119598,33.47474501160109L95.28531367063523,33.4950336950649L95.47859016895293,33.55602548647673L95.54301566839219,33.576410324838484L95.60744116783142,33.59680255973086L95.80071766614914,33.658156781142594L95.86514316558838,33.678645170932874L96.3805471611023,33.843476855581535L96.63824915885925,33.92645113596693L96.76710015773773,33.96808620677184L96.8959511566162,34.00981003594406L96.96037665605544,34.03071263144852L97.15365315437317,34.0935461589823L97.34692965269087,34.15659418590378L97.41135515213013,34.177652108551065L97.47578065156937,34.19873222079016L97.5402061510086,34.21984931568234L97.73348264932632,34.28331894484859L98.24888664484024,34.45359447602636L98.37773764371872,34.49639819866768L98.5065886425972,34.53929807620692L98.63543964147567,34.582286712113486L98.69986514091492,34.603818012719834L98.89314163923262,34.66854505208982L99.02199263811112,34.71181475615958L99.15084363698959,34.75518061512729L99.4729711341858,34.86399837346476L99.92394963026047,35.01729147036147L99.9883751296997,35.03928875239626L100.18165162801742,35.105406339520975L100.3105026268959,35.14961540297823L100.69705562353134,35.28274555743149L100.76148112297058,35.305016511098856L100.89033212184907,35.349624987209054L101.01918312072755,35.394329618217206L101.2768851184845,35.48400515533545L101.53458711624145,35.5740505189842L101.66343811511994,35.619213734890195L101.98556561231612,35.73251379077747L102.04999111175538,35.75523593281204L102.11441661119461,35.77798766096907L102.5653951072693,35.93787846317008L102.62982060670852,35.96081510459236L103.01637360334396,36.09889353802387L103.27407560110092,36.191394549835216L103.33850110054017,36.21456788023701L103.4029265999794,36.23777819329189L103.98275609493257,36.447639956295525L104.11160709381105,36.494511770772455L104.30488359212875,36.56500810401841L104.69143658876419,36.706592492959146L104.75586208820343,36.73026878744246L105.01356408596038,36.82520325782457L105.20684058427811,36.89663895045803L105.27126608371734,36.92049276167598L105.33569158315659,36.944376159016365L105.5289680814743,37.01613729899667L106.23764857530594,37.28099226708724L106.43092507362365,37.35369276645506L106.62420157194138,37.426585575618724L106.68862707138061,37.45092755785695L106.75305257081986,37.475299126217614L106.94632906913756,37.54852477925874L107.01075456857681,37.57297770945611L107.07518006801605,37.59745282924531L108.04156255960464,37.9672201875112L108.23483905792236,38.041762423000954L108.36369005680083,38.09157066013014L108.42811555624009,38.116504364817175L108.55696655511856,38.16643834296674L108.6213920545578,38.19143861642926L108.81466855287552,38.266572574367835L109.00794505119323,38.34189884210226L109.07237055063248,38.36705444270761L109.20122154951096,38.41741741963255L109.33007254838944,38.467876551455454L109.45892354726791,38.518417045115044L109.58777454614639,38.56905369367258L109.7810510444641,38.645156597121094L109.90990204334258,38.69600034853571L110.03875304222106,38.746932858317656L110.16760404109955,38.79795412646691L110.29645503997803,38.84904935992229L110.4253060388565,38.90024074827559L111.0695610332489,39.15746989330704L111.32726303100586,39.26096214960518L111.58496502876281,39.36479464631137L111.64939052820206,39.3908082444675L111.7138160276413,39.41683663568485L111.84266702651978,39.468959986895044L112.0359435248375,39.54731883217965L112.22922002315521,39.625862590729525L112.35807102203368,39.678318785817176L112.55134752035141,39.7571805951833L112.93790051698684,39.9154589537113L113.06675151586532,39.968388526758L113.1956025147438,40.02140685817202L113.26002801418305,40.04794561000147L113.45330451250075,40.12768760651021L113.51773001194,40.154300323645764L113.58215551137924,40.18094262690375L113.77543200969696,40.26100267422872L114.29083600521088,40.47539111396581L114.61296350240707,40.610059746786L114.74181450128555,40.6640766098324L115.12836749792099,40.82661536999188L115.38606949567794,40.935381352615096L115.4504949951172,40.96262277485253L115.51492049455642,40.98989378321237L115.57934599399567,41.01717958463346L115.9658989906311,41.18131599540475L116.15917548894882,41.263661570688285L116.6101539850235,41.45651870981903L116.73900498390198,41.511807776130404L116.9322814822197,41.594885607944335L116.99670698165895,41.622622597732644L117.18998347997665,41.70595191158731L117.2544089794159,41.73376286668174L117.57653647661209,41.87314308950063L117.64096197605133,41.90107238908481L117.70538747549057,41.92903127479142L117.8986639738083,42.01301887987041L118.091940472126,42.097198794745275L118.15636597156525,42.12529081800287L118.22079147100449,42.15341242738292L118.28521697044373,42.18154143329356L118.34964246988297,42.20970002532664L118.7361954665184,42.37906578323936L119.12274846315384,42.54914900462126L119.50930145978927,42.719949689472344L119.76700345754624,42.834211294338964L119.89585445642471,42.89145304473141L120.21798195362092,43.03492354897776L120.47568395137787,43.15005054792575L120.92666244745254,43.35227909133966L121.05551344633102,43.41023090867069L121.24878994464873,43.49731766007537L121.37764094352721,43.55546178720227L121.44206644296646,43.584574531684076L121.63534294128418,43.67200892002743L121.69976844072342,43.701180836754105L121.8286194396019,43.7596060320442L121.89304493904113,43.78884451754639L122.08632143735886,43.8766783185427L123.18155492782593,44.37769711248686L123.24598042726517,44.40734240717259L123.3104059267044,44.43700249491955L123.37483142614364,44.46669216878896L123.63253342390061,44.58560619140939L123.82580992221831,44.67499326383385L124.08351191997528,44.79444723318881L124.14793741941452,44.824351406445906L124.21236291885376,44.85428516582546L124.47006491661071,44.974190323547646L124.53449041604996,45.004212841294525L124.59891591548919,45.034250152102594L124.72776691436768,45.09439873902487L124.85661791324615,45.15461389472263L124.98546891212463,45.214903015726506L125.11431991100311,45.27526610203646L125.62972390651703,45.51746549686797L125.95185140371323,45.66945680437728L126.01627690315246,45.699915717430144L126.59610639810563,45.97482257062003L126.66053189754486,46.00545900040753L127.36921239137651,46.343680155620845L127.69133988857268,46.498149300884585L127.88461638689041,46.59104232881827L127.94904188632965,46.622055981666904L128.14231838464738,46.7151709055189L128.27116938352586,46.77733874529777L128.3355948829651,46.80844855304433L128.850998878479,47.05799270277177L128.91542437791824,47.089265234191764L128.97984987735748,47.12055995520359L129.04427537679672,47.15186207274601L129.23755187511443,47.24589416639369L129.3664028739929,47.30868331474381L129.43082837343215,47.340103776776L129.4952538728714,47.3715316353388L130.0106578683853,47.623642381187985L130.33278536558151,47.781787602165004L130.39721086502075,47.81348173582978L130.59048736333847,47.90862330906898L131.04146585941314,48.131273673497674L131.17031685829164,48.19503916388834L131.814571852684,48.51493171624954L132.13669934988022,48.675525188858536L132.20112484931946,48.70768530395174L132.32997584819793,48.77207949944428L132.3944013476372,48.804298786782375L132.7809543442726,48.997999130402704L132.84537984371184,49.030344158761174L133.2319328403473,49.22476196585068L133.29635833978654,49.25722533869892L133.87618783473968,49.55015014045527L134.13388983249664,49.680772871031685L134.26274083137514,49.74618039121781L134.5204428291321,49.87720993097778L135.10027232408524,50.1730119831415L135.22912332296372,50.238922467409125L135.42239982128143,50.33792502962687L135.5512508201599,50.40399823756791L135.61567631959915,50.43706812592618L135.93780381679534,50.60263946363587L136.13108031511305,50.702181972588136L136.45320781230924,50.868411601522105L136.58205881118775,50.9350173596671L136.8397608089447,51.06842858228356L136.96861180782318,51.13523404675502L137.03303730726242,51.16864417552136L137.09746280670166,51.20209128694076L137.22631380558013,51.26901509590198L137.35516480445864,51.336020266699926L137.67729230165483,51.50378837400083L137.87056879997255,51.6046400688711L137.999419798851,51.67195589395468L138.19269629716874,51.77305907086571L138.38597279548645,51.87428798879711L138.6436747932434,52.00950396488247L138.83695129156112,52.11107312322195L139.09465328931807,52.24671809808268L139.15907878875734,52.28066817358357L139.22350428819658,52.31463304214568L139.67448278427125,52.55284570697826L139.80333378314972,52.621049115735055L139.9321847820282,52.68930430020614L140.12546128034592,52.791812817933106L140.18988677978516,52.826014375474735L140.57643977642059,53.0315417715408L140.64086527585982,53.06585427704157L140.89856727361678,53.20325222965693L141.15626927137373,53.34088687125182L141.34954576969147,53.4442681795908L141.41397126913068,53.47876559835684L141.47839676856995,53.5132704136535L141.5428222680092,53.54779002201138L141.67167326688767,53.616881014441404L141.86494976520538,53.72063214931088L142.31592826128008,53.96324574985657L142.3803537607193,53.99796506454093L142.70248125791548,54.171783533880976L142.83133225679398,54.24140707651494L142.89575775623322,54.27625213221966L142.96018325567243,54.311104584455L143.54001275062564,54.62544973885854L143.7977147483826,54.7655326320854L143.86214024782183,54.80059958370843L143.92656574726104,54.835666535331455L143.99099124670028,54.870755676546324L144.11984224557878,54.94098573469032L144.44196974277497,55.116786474233926L144.50639524221418,55.15199395993855L144.6352462410927,55.222445914000836L144.69967174053193,55.25769038235851L144.76409723997116,55.292957040308025L144.95737373828888,55.39883097946264L145.08622473716736,55.46949743291265L145.1506502366066,55.50483805616825L145.21507573604583,55.54020086901569L145.79490523099898,55.85910968280574L145.98818172931672,55.9656714993071L146.56801122426987,56.28611139493346L146.95456422090533,56.50036669711957L147.01898972034454,56.536128922619966L147.40554271697997,56.75096855072426L147.46996821641923,56.786834327653196L147.53439371585847,56.82270010458213L147.66324471473692,56.89447603762366L148.04979771137238,57.11014407715632L148.4363507080078,57.326300287709245L148.50077620744707,57.36238056402589L149.01618020296098,57.65145916986493L149.08060570240022,57.68764299761009L149.27388220071794,57.79632022186599L149.46715869903562,57.90510099755042L149.7248606967926,58.05033927261262L149.85371169567108,58.12303237544982L150.11141369342803,58.26858130479764L150.49796669006346,58.4872967149417L150.75566868782042,58.63337819449344L150.82009418725968,58.669924452238526L151.01337068557737,58.77965938037168L151.14222168445588,58.85288503341281L151.3354981827736,58.96280487481122L151.59320018053057,59.10955204211789L151.72205117940902,59.18300698760794L151.85090217828753,59.256506312281644L151.91532767772676,59.29327446594503L151.97975317716597,59.33005741266962L152.43073167324067,59.58788567668051L152.55958267211912,59.6616586729868L152.6240081715584,59.69856736073177L153.01056116819382,59.92028576230358L153.07498666763306,59.95728320841587L153.1394121670723,59.99428805105878L153.26826316595077,60.06834951205887L153.39711416482925,60.14244795571202L154.1702201581001,60.5880963215081L154.75004965305328,60.9234846054977L155.00775165081026,61.072864937701596L155.32987914800646,61.259849231527845L155.39430464744567,61.29728307294614L155.71643214464186,61.484622400241676L155.78085764408112,61.52213020696608L155.84528314352036,61.55964541022109L156.10298514127732,61.70981717120029L156.16741064071655,61.74739894323079L156.553963637352,61.973089281740286L156.81166563510897,62.12377879986221L156.8760911345482,62.161478916382464L156.94051663398741,62.19918642943336L157.06936763286592,62.27464583471876L157.13379313230516,62.312397726953314L157.45592062950135,62.5012977222076L157.64919712781906,62.614782691360126L157.77804812669754,62.69049357868629L157.97132462501526,62.80414127151225L158.16460112333297,62.917885119236146L158.35787762165072,63.03173991491919L158.48672862052916,63.10770228428609L158.87328161716462,63.33583347789697L158.93770711660386,63.37388862788653L159.0665581154823,63.4500433070493L159.1954091143608,63.52623496886512L159.77523860931396,63.86966328162802L159.8396641087532,63.907873758760395L159.90408960819246,63.94610642548461L159.9685151076317,63.98433909220881L160.87047209978104,64.5207206990004L161.128174097538,64.67435403630519L161.38587609529495,64.828157493814L161.45030159473419,64.86664164257894L161.6435780930519,64.98212367499625L161.70800359249114,65.02064480641424L161.90128009080885,65.1362525798519L162.03013108968736,65.21337620452462L162.1589820885658,65.290544208381L162.481109585762,65.48363803649127L162.67438608407974,65.59961563645945L162.80323708295822,65.6769759501117L162.86766258239746,65.71568199479495L162.99651358127593,65.79310887722269L163.18979007959365,65.909330562701L163.3830665779114,66.02562621348541L163.51191757678984,66.10320842305596L163.70519407510756,66.21965940098318L163.8984705734253,66.33619913727775L163.96289607286454,66.37506790563442L164.15617257118225,66.49172598641873L164.34944906949997,66.60846542903977L164.8648530650139,66.9201996081379L164.92927856445314,66.95920891057617L165.0581295633316,67.03724970504454L165.3802570605278,67.23253290621545L165.702384557724,67.42804539983528L165.76681005716324,67.46718044329393L165.83123555660248,67.50631548675258L165.96008655548096,67.58462255632293L166.0245120549202,67.62378718590402L166.1533630537987,67.70214603118865L166.28221405267715,67.78054925565692L166.4754905509949,67.89821326460422L166.5399160504341,67.93745185949142L166.79761804819105,68.09449499740751L167.11974554538725,68.2910060226597L167.24859654426575,68.36968291876056L167.63514954090118,68.60589112379779L167.69957504034045,68.64528504582779L167.76400053977966,68.68469376091903L167.8284260392189,68.72410987254086L167.89285153865814,68.76354077722391L168.08612803697585,68.88186307739552L168.21497903585436,68.96079145553713L168.40825553417204,69.07924689325975L168.4726810336113,69.11874436671829L168.665957531929,69.23730335586943L168.7948085308075,69.31639445768447L168.92365952968598,69.39550035256072L168.98808502912522,69.43507179132536L169.05251052856445,69.47465062662063L169.3102125263214,69.63303993310778L169.5679145240784,69.79157717020715L169.6323400235176,69.83122257427787L169.69676552295684,69.87088277140985L169.9544675207138,70.02961971483569L170.01889302015303,70.0693094980901L170.14774401903153,70.14874084031321L170.21216951847074,70.18846760622068L170.34102051734925,70.26794332762744L170.4054460167885,70.30769228312674L170.46987151622773,70.34744863515664L170.5987225151062,70.42699092533888L170.66314801454544,70.46676946696063L170.79199901342392,70.54635613632655L170.98527551174163,70.6657879160897L171.11412651062014,70.74545594729233L171.17855201005935,70.78530845422017L171.56510500669478,71.02453444374635L171.62953050613405,71.06443132985787L171.69395600557328,71.10433561249997L171.95165800333024,71.26404150143574L172.0805090022087,71.34393142855669L172.2093600010872,71.42386573486127L172.46706199884414,71.58379351971536L172.91804049491884,71.86398889229152L173.11131699323653,71.98417511817692L173.24016799211503,72.06433871693042L173.36901899099348,72.14453190180637L173.43344449043275,72.18463589077496L173.6911464881897,72.34514060501662L173.81999748706818,72.42542254825992L173.88442298650742,72.465593106004L173.94884848594666,72.50574887068684L174.14212498426437,72.6262827335109L174.20655048370364,72.66646808431622L174.39982698202132,72.78708330897699L174.4642524814606,72.82731303896595L174.65752897977828,72.94800962546346L174.850805478096,73.06877278073645L175.10850747585297,73.22987661395754L175.4950604724884,73.47175056144218L175.55948597192764,73.51208384285968L175.7527624702454,73.63312066976525L175.8171879696846,73.67349093383581L175.94603896856307,73.75422406544631L176.07488996744158,73.83500157624047L176.1393154668808,73.87538663337226L176.2681664657593,73.95619373028883L176.33259196519853,73.99660837354307L176.46144296407698,74.07745245311271L176.52586846351625,74.11788188942816L176.59029396295549,74.1583261188048L176.65471946239472,74.19876295165085L176.7835704612732,74.27968099652661L176.91242146015168,74.36060643793299L176.97684695959092,74.40108764996268L177.23454895734787,74.56304948073458L177.2989744567871,74.60355288235611L177.42782545566558,74.68458927172163L177.62110195398333,74.80618083842295L177.74995295286178,74.88727640003334L177.94322945117952,75.00896412163263L178.71633544445038,75.496240161703L178.97403744220733,75.65884549063796L179.16731394052508,75.78086605611469L179.48944143772127,75.9843372166711L179.61829243659972,76.06576562215895L179.81156893491743,76.18795630783971L180.1981219315529,76.43246342022161L180.26254743099213,76.47324789000633L180.3913984298706,76.55479463998395L180.58467492818832,76.67717763546058L180.77795142650604,76.79960501012086L180.84237692594527,76.84042646255864L180.9068024253845,76.88125531152703L181.4866319203377,77.24889246897716L181.55105741977692,77.28977309365982L181.61548291921616,77.33066111487308L181.67990841865537,77.37154173955577L181.80875941753388,77.4533251785129L181.93761041641235,77.53512341053127L182.13088691473007,77.6578688360078L182.45301441192626,77.86254563105368L182.58186541080477,77.94444741450059L182.64629091024398,77.98540200448934L182.71071640968322,78.02636399100872L182.77514190912248,78.0673333740587L183.2905459046364,78.39523636907076L183.87037539958953,78.7644711771327L184.19250289678573,78.96975448768863L184.70790689229966,79.29843411841476L184.77233239173887,79.33954403554634L184.96560889005661,79.46287378694107L185.22331088781357,79.62737262771226L185.41658738613128,79.75079853400491L185.67428938388827,79.91540832273526L185.86756588220595,80.03890819433401L186.06084238052367,80.16245244511646L186.1252678799629,80.20363632755414L186.18969337940217,80.24482760652242L186.31854437828062,80.32721756098961L186.83394837379456,80.65693270600119L186.96279937267303,80.73939662577448L187.0916503715515,80.82186794207837L187.22050137043001,80.9043614479741L187.5426288676262,81.11065068669299L187.86475636482237,81.31702128724862L188.3801603603363,81.64738732695389L188.44458585977554,81.68870434694256L188.50901135921478,81.73001397040059L188.76671335697176,81.89529684341646L188.95998985528945,82.01929228256613L189.15326635360717,82.14330251477698L189.6686703491211,82.47416412203313L189.79752134799958,82.556901713439L190.05522334575653,82.72242127543441L190.11964884519577,82.76379746766794L190.184074344635,82.80518845296271L190.24849984407425,82.84657943825748L190.37735084295272,82.92936880537762L190.5062018418312,83.01216556902835L190.69947834014891,83.13638290409632L190.89275483846666,83.26062242875611L190.95718033790587,83.30204300017331L191.08603133678437,83.38488414300772L191.21488233566285,83.46774007890335L191.66586083173752,83.75779502678294L191.92356282949447,83.92360305347215L192.05241382837295,84.00650336855144L192.18126482725145,84.08942587322255L192.3101158261299,84.17235577442429L192.37454132556917,84.21382072502516L192.50339232444762,84.29676541928812L192.69666882276536,84.42118985721315L192.8255198216438,84.50414194800672L193.01879631996155,84.6286033685848L193.14764731884003,84.71158504550081L193.34092381715774,84.83606865567073L193.40534931659698,84.87756319239405L193.46977481603622,84.91906512564796L194.1140298104286,85.33414363043204L194.17845530986784,85.37566775327778L194.30730630874635,85.45870860243866L194.37173180818556,85.50022532875381L194.4361573076248,85.54174945159956L194.50058280706406,85.5832809709759L194.69385930538175,85.70786073604377L194.75828480482102,85.74938485888951L194.8871358036995,85.83245529417283L195.0804123020172,85.95706464536313L195.20926330089569,86.04013508064646L195.33811429977416,86.12322770552161L195.46696529865264,86.20631293386617L196.0467947936058,86.58026672845745L196.11122029304505,86.62182043742563L196.30449679136277,86.74649635739142L196.43334779024124,86.8296111718584L196.56219878911972,86.91272598632538L196.6910497879982,86.99586299038421L196.8199007868767,87.07899259791242L196.8843262863159,87.12056109994184L197.07760278463365,87.24525920949944L197.46415578126906,87.49469241126775L197.5285812807083,87.53626091329714L197.78628327846525,87.70256450753723L197.979559776783,87.82729220321728L198.1728362751007,87.95203469195856L198.30168727397918,88.03518648907861L198.36611277341845,88.07676978416924L198.6238147711754,88.24308817147055L198.88151676893236,88.40941395530245L199.07479326725004,88.53416384057434L199.1392187666893,88.57575453219559L199.20364426612855,88.6173378272862L199.2680697655678,88.65891372584623L199.4613462638855,88.78366361111813L199.71904826164246,88.95001158454187L199.84789926052093,89.03317077819253L200.1056012582779,89.19951135508566L200.17002675771715,89.24108725364567L200.2988777565956,89.32426124035756L200.36330325603484,89.36584453544818L200.68543075323106,89.57376101090132L200.87870725154875,89.6985034996426L200.943132750988,89.74007939820262L201.0719837498665,89.82324598838387L201.20083474874497,89.90639778550393L201.32968574762344,89.98955697915459L201.39411124706268,90.0311328777146L201.5873877453804,90.15586796992525L201.65181324481964,90.1974512650159L201.78066424369814,90.28059566560532L201.97394074201583,90.40531596475478L202.0383662414551,90.4468918633148L202.16721724033354,90.53003256563892L202.553770236969,90.77944727608069L202.7470467352867,90.904141687373L202.94032323360443,91.02883609866531L203.00474873304367,91.07040090242943L203.26245073080062,91.2366305313634L203.64900372743608,91.48596018170313L204.48653522014618,92.02601786420801L204.74423721790313,92.19215503650936L204.87308821678164,92.27520328220085L205.19521571397783,92.4828238964296L205.38849221229555,92.60737777364032L205.517343211174,92.69040752800531L205.77504520893098,92.85644114887809L206.09717270612717,93.06394711688239L206.35487470388412,93.229917867245L206.61257670164107,93.39585903148519L206.8058531999588,93.52029826247146L207.38568269491194,93.89350130920577L207.7722356915474,94.14220965097427L208.41649068593978,94.556544804432L208.48091618537904,94.59797277237982L208.54534168481828,94.6393859472664L208.738618183136,94.76362547192619L208.80304368257524,94.8050312502822L209.12517117977143,95.01203795247028L209.2540221786499,95.09481992305982L209.51172417640686,95.26035797638173L209.5761496758461,95.30173047034995L209.64057517528533,95.34311036084883L209.70500067472457,95.38447915655176L209.7694261741638,95.42584425398938L209.83385167360308,95.4672130496923L209.8982771730423,95.50857814712995L210.41368116855622,95.83938428040652L210.60695766687394,95.96338711608678L210.99351066350937,96.21131142561059L211.25121266126632,96.37653142811627L211.89546765565873,96.78935399106422L211.95989315509797,96.83062663186922L212.02431865453718,96.871884479613L212.47529715061188,97.16061175024805L212.79742464780807,97.36674936008944L212.9907011461258,97.4903860675045L213.11955214500426,97.5727908150329L213.18397764444353,97.61398949053181L213.24840314388277,97.6551807695001L213.31282864332198,97.6963757467337L213.57053064107893,97.8610964834232L214.08593463659287,98.19035674180222L214.1503601360321,98.23149624505625L214.34363663434982,98.35489256522645L214.47248763322833,98.43713828734674L214.53691313266754,98.47825190274364L214.665764131546,98.5604717370068L214.98789162874223,98.76594365909327L215.43887012481687,99.05343940738172L215.56772112369538,99.1355335006245L215.7609976220131,99.25865614916214L215.88984862089157,99.34071325975188L216.21197611808776,99.54577837265478L216.40525261640548,99.66876788364145L216.59852911472322,99.79170931717914L217.17835860967637,100.16028583401676L217.2427841091156,100.20121453614838L217.43606060743332,100.32397105642083L217.62933710575103,100.44668689577492L217.7581881046295,100.52847403299738L217.82261360406875,100.56935835594534L218.2091666007042,100.81456074220459L218.40244309902192,100.93709906482401L218.46686859846116,100.9779279137924L218.5957195973396,101.05958561172919L218.78899609565735,101.18202777945068L218.91784709453583,101.2636337016732L219.0466980934143,101.34520633950795L219.23997459173202,101.46753755927031L219.30440009117126,101.50830353772852L219.3688255906105,101.54906951618672L219.81980408668517,101.83423905559826L220.14193158388136,102.03777308666484L220.27078258275986,102.11914601817314L220.3352080821991,102.15982693652933L220.3996335816383,102.20049676008959L220.6573355793953,102.3631279768817L220.72176107883453,102.40377561085013L221.04388857603072,102.60690283273317L221.10831407546996,102.64751718231386L221.36601607322692,102.80988952053461L221.55929257154466,102.93161422478693L221.62371807098387,102.97217310038803L221.75256906986237,103.05328345505967L222.20354756593704,103.33695519702263L222.26797306537628,103.3774585986442L222.59010056257247,103.57986835705803L223.36320655584336,104.06501049804734L223.68533405303955,104.26688400799196L223.81418505191803,104.34758755348001L223.87861055135727,104.38792453316282L224.071887049675,104.50890958435411L224.13631254911422,104.5492206761798L224.71614204406737,104.91175052924358L225.10269504070283,105.15312521091204L225.36039703845978,105.31391099331688L225.42482253789902,105.35408894759158" fill="none"></path></g></g></g></g></g></g><g transform="translate(72, 177)" clip-path="url(#clip_1)"><clipPath id="clip_1"><rect width="257" height="22"></rect></clipPath><g><g><line x1="0" y1="0" x2="0" y2="5" style="visibility: inherit;" fill="rgb(0, 0, 0)" stroke="rgb(204, 204, 204)" stroke-width="1px"></line><line x1="32.21274971961975" y1="0" x2="32.21274971961975" y2="5" style="visibility: inherit;" fill="rgb(0, 0, 0)" stroke="rgb(204, 204, 204)" stroke-width="1px"></line><line x1="64.4254994392395" y1="0" x2="64.4254994392395" y2="5" style="visibility: inherit;" fill="rgb(0, 0, 0)" stroke="rgb(204, 204, 204)" stroke-width="1px"></line><line x1="96.63824915885925" y1="0" x2="96.63824915885925" y2="5" style="visibility: inherit;" fill="rgb(0, 0, 0)" stroke="rgb(204, 204, 204)" stroke-width="1px"></line><line x1="128.850998878479" y1="0" x2="128.850998878479" y2="5" style="visibility: inherit;" fill="rgb(0, 0, 0)" stroke="rgb(204, 204, 204)" stroke-width="1px"></line><line x1="161.06374859809875" y1="0" x2="161.06374859809875" y2="5" style="visibility: inherit;" fill="rgb(0, 0, 0)" stroke="rgb(204, 204, 204)" stroke-width="1px"></line><line x1="193.2764983177185" y1="0" x2="193.2764983177185" y2="5" style="visibility: inherit;" fill="rgb(0, 0, 0)" stroke="rgb(204, 204, 204)" stroke-width="1px"></line><line x1="225.48924803733826" y1="0" x2="225.48924803733826" y2="5" style="visibility: inherit;" fill="rgb(0, 0, 0)" stroke="rgb(204, 204, 204)" stroke-width="1px"></line><line x1="257.701997756958" y1="0" x2="257.701997756958" y2="5" style="visibility: inherit;" fill="rgb(0, 0, 0)" stroke="rgb(204, 204, 204)" stroke-width="1px"></line></g><g transform="translate(0, 8)"><text style="text-anchor: middle; visibility: hidden; font-family: Roboto, sans-serif; font-size: 12px; font-weight: 200;" x="0" y="0" dx="0em" dy="0.95em" fill="rgb(50, 49, 63)" stroke="none" stroke-width="1px">-500</text><text style="text-anchor: middle; visibility: inherit; font-family: Roboto, sans-serif; font-size: 12px; font-weight: 200;" x="32.21274971961975" y="0" dx="0em" dy="0.95em" fill="rgb(50, 49, 63)" stroke="none" stroke-width="1px">0</text><text style="text-anchor: middle; visibility: inherit; font-family: Roboto, sans-serif; font-size: 12px; font-weight: 200;" x="64.4254994392395" y="0" dx="0em" dy="0.95em" fill="rgb(50, 49, 63)" stroke="none" stroke-width="1px">500</text><text style="text-anchor: middle; visibility: inherit; font-family: Roboto, sans-serif; font-size: 12px; font-weight: 200;" x="96.63824915885925" y="0" dx="0em" dy="0.95em" fill="rgb(50, 49, 63)" stroke="none" stroke-width="1px">1k</text><text style="text-anchor: middle; visibility: inherit; font-family: Roboto, sans-serif; font-size: 12px; font-weight: 200;" x="128.850998878479" y="0" dx="0em" dy="0.95em" fill="rgb(50, 49, 63)" stroke="none" stroke-width="1px">1.5k</text><text style="text-anchor: middle; visibility: inherit; font-family: Roboto, sans-serif; font-size: 12px; font-weight: 200;" x="161.06374859809875" y="0" dx="0em" dy="0.95em" fill="rgb(50, 49, 63)" stroke="none" stroke-width="1px">2k</text><text style="text-anchor: middle; visibility: inherit; font-family: Roboto, sans-serif; font-size: 12px; font-weight: 200;" x="193.2764983177185" y="0" dx="0em" dy="0.95em" fill="rgb(50, 49, 63)" stroke="none" stroke-width="1px">2.5k</text><text style="text-anchor: middle; visibility: inherit; font-family: Roboto, sans-serif; font-size: 12px; font-weight: 200;" x="225.48924803733826" y="0" dx="0em" dy="0.95em" fill="rgb(50, 49, 63)" stroke="none" stroke-width="1px">3k</text><text style="text-anchor: middle; visibility: hidden; font-family: Roboto, sans-serif; font-size: 12px; font-weight: 200;" x="257.701997756958" y="0" dx="0em" dy="0.95em" fill="rgb(50, 49, 63)" stroke="none" stroke-width="1px">3.5k</text></g><line x1="0" y1="0" x2="257.701997756958" y2="0" fill="rgb(0, 0, 0)" stroke="rgb(204, 204, 204)" stroke-width="1px"></line></g></g></g></g></svg>